<?xml version="1.0" standalone="no"?>
<!DOCTYPE svg PUBLIC "-//W3C//DTD SVG 20010904//EN"
 "http://www.w3.org/TR/2001/REC-SVG-20010904/DTD/svg10.dtd">
<svg version="1.0" xmlns="http://www.w3.org/2000/svg"
 width="640.000000pt" height="541.000000pt" viewBox="0 0 640.000000 541.000000"
 preserveAspectRatio="xMidYMid meet">

<g transform="translate(0.000000,541.000000) scale(0.100000,-0.100000)"
fill="#000000" stroke="none">
<path d="M3899 5209 c-103 -10 -231 -49 -285 -86 -21 -14 -54 -27 -73 -27 -19
-1 -36 -7 -39 -14 -2 -7 -10 -12 -18 -12 -8 0 -14 -4 -14 -9 0 -4 -19 -21 -42
-37 -84 -57 -111 -84 -139 -134 -70 -126 -90 -168 -91 -195 -1 -16 -9 -45 -19
-63 -11 -17 -19 -35 -19 -40 -1 -20 -15 -50 -34 -72 -26 -29 -62 -111 -69
-157 -3 -18 -13 -40 -22 -50 -22 -21 -15 -79 25 -218 27 -94 133 -381 145
-393 3 -3 38 -11 78 -18 248 -43 271 -51 220 -78 -35 -17 -149 -104 -214 -160
l-46 -40 39 -60 c21 -34 38 -64 38 -69 -1 -20 34 -69 77 -106 34 -31 45 -46
38 -55 -49 -66 -93 -152 -125 -246 -17 -50 -32 -193 -33 -317 -1 -112 1 -135
21 -181 21 -51 22 -56 7 -105 -9 -29 -27 -102 -41 -164 -23 -106 -24 -113 -9
-151 9 -22 24 -43 33 -47 14 -5 14 -7 2 -16 -13 -8 -11 -13 10 -30 100 -81
102 -91 24 -136 -31 -18 -54 -26 -51 -19 4 9 -9 17 -36 25 -67 20 -139 73
-181 135 -37 53 -38 57 -23 74 10 10 17 32 17 49 0 29 26 118 40 138 4 6 10
44 13 86 5 62 13 87 37 126 l31 49 -11 95 c-16 140 -69 299 -105 313 -25 9
-25 9 -25 -28 0 -19 -11 -49 -25 -71 -38 -55 -51 -121 -37 -189 10 -48 9 -59
-4 -74 -8 -9 -28 -35 -43 -57 -32 -47 -106 -87 -160 -88 -21 0 -60 12 -96 30
-33 17 -94 47 -135 67 -41 20 -86 42 -100 49 -35 18 -37 57 -6 104 54 78 22
94 -80 40 l-60 -33 -2 29 c-1 16 -9 42 -17 57 -21 41 -19 60 12 92 24 25 26
32 16 58 -10 27 -9 32 18 51 33 23 30 39 -8 39 -24 0 -25 3 -20 35 5 27 2 37
-13 45 -15 8 -28 1 -69 -36 -48 -43 -121 -140 -121 -160 0 -5 -14 -20 -31 -34
-27 -23 -32 -36 -50 -135 -34 -192 -35 -173 10 -243 36 -56 40 -67 35 -106 -5
-36 -2 -53 21 -95 16 -28 48 -67 72 -87 43 -35 43 -36 37 -87 -6 -50 -4 -54
33 -97 21 -25 47 -64 58 -88 21 -49 57 -82 90 -82 13 0 70 -38 136 -90 63 -50
133 -97 156 -106 23 -9 45 -24 48 -33 4 -15 66 -41 97 -41 7 0 40 -14 73 -30
33 -16 73 -30 88 -30 15 0 30 -7 34 -15 3 -9 18 -22 34 -31 38 -19 37 -36 -6
-68 -54 -42 -47 -56 30 -56 52 0 71 5 101 25 46 31 58 32 48 3 -4 -13 -8 -49
-9 -80 0 -40 -6 -63 -19 -77 -19 -21 -19 -21 14 -21 26 0 30 3 21 13 -17 22 8
37 61 37 38 0 46 3 42 15 -5 12 3 15 41 15 63 0 120 -18 148 -46 30 -30 117
-73 134 -67 8 3 20 -2 27 -12 11 -16 14 -16 28 -1 23 22 27 21 104 -24 38 -22
77 -40 87 -40 10 0 28 -6 40 -12 20 -12 17 -13 -31 -18 l-54 -5 46 -32 c47
-33 58 -56 32 -66 -11 -4 -13 -16 -9 -41 5 -35 -7 -49 -22 -26 -3 6 -43 35
-88 64 -83 55 -150 116 -129 116 13 0 12 22 -2 32 -5 3 -17 1 -27 -5 -14 -9
-32 -3 -89 27 -100 52 -79 30 48 -51 59 -37 135 -89 170 -115 35 -27 67 -48
72 -48 5 0 26 -15 47 -32 20 -18 34 -28 30 -21 -5 7 -1 23 7 36 9 13 17 38 19
55 2 18 9 38 15 44 16 16 16 0 -2 -54 -8 -24 -18 -61 -21 -83 -10 -53 -30
-133 -44 -169 l-11 -28 -22 27 c-18 24 -22 25 -36 12 -13 -14 -13 -21 2 -63
23 -67 11 -68 -18 -1 -14 30 -31 59 -38 64 -13 8 -24 28 -46 84 -5 14 -35 43
-66 63 -31 20 -56 42 -56 48 0 6 -11 21 -25 34 -23 21 -26 22 -42 6 -9 -10
-32 -17 -52 -17 -25 0 -36 -5 -36 -15 -2 -46 -17 -67 -47 -67 -26 0 -33 6 -56
56 -20 42 -27 76 -30 139 -4 79 -5 82 -28 82 -19 0 -24 5 -24 25 0 27 -9 32
-28 13 -9 -9 -12 -7 -12 8 0 18 -15 24 -112 48 -73 18 -132 26 -168 24 l-55
-3 2 -40 c2 -34 1 -36 -6 -15 -8 22 -9 22 -10 4 -1 -13 -14 -26 -36 -37 -20
-9 -38 -17 -40 -17 -11 0 -3 39 15 75 11 21 19 40 17 41 -4 4 -217 23 -336 30
-100 6 -117 10 -135 29 -25 26 -62 34 -175 37 -74 1 -87 4 -104 25 -12 13 -28
23 -37 23 -9 0 -27 12 -41 26 -13 14 -51 46 -85 70 l-60 43 -3 128 c-1 99 1
132 13 148 9 12 11 24 5 31 -11 14 -16 190 -7 271 7 59 5 65 -26 110 -29 43
-45 53 -167 109 -75 35 -149 63 -167 63 -32 1 -33 0 -18 -21 9 -12 16 -36 16
-53 0 -58 22 -109 62 -148 40 -38 40 -40 29 -77 -6 -20 -11 -47 -11 -58 0 -41
-24 -73 -81 -107 -32 -20 -70 -35 -87 -35 -42 0 -187 47 -202 65 -7 8 -27 17
-46 21 -38 7 -38 8 -23 53 9 27 8 35 -6 51 -17 19 -18 19 -56 -1 -22 -10 -39
-23 -39 -28 0 -4 -15 -16 -33 -26 -27 -14 -42 -16 -73 -8 -38 9 -39 10 -39 53
0 43 4 49 77 126 71 74 78 85 78 121 0 27 6 46 20 58 23 21 26 41 6 48 -16 6
-112 -36 -141 -62 -11 -10 -62 -44 -112 -75 -71 -44 -93 -62 -93 -79 -1 -68
-35 -89 -66 -42 -15 23 -15 35 -5 95 18 109 15 148 -14 182 -19 23 -23 34 -15
48 14 27 13 63 -2 58 -20 -7 -94 -154 -123 -243 -40 -122 -42 -160 -11 -225
14 -30 26 -62 26 -71 0 -26 46 -122 71 -148 12 -13 47 -35 78 -48 86 -38 95
-43 127 -68 26 -21 27 -25 16 -49 -7 -15 -12 -46 -12 -68 0 -36 6 -47 43 -82
23 -23 56 -47 72 -55 17 -7 37 -17 45 -21 8 -4 32 -36 52 -71 40 -67 81 -109
110 -109 29 0 65 -21 79 -46 7 -14 37 -40 66 -60 29 -19 53 -39 53 -43 0 -14
141 -121 194 -148 28 -14 65 -41 82 -59 27 -29 38 -34 77 -34 25 0 83 -13 129
-29 62 -22 94 -28 125 -24 35 5 43 2 55 -16 7 -11 22 -21 33 -21 12 0 30 -6
40 -14 19 -14 19 -15 2 -50 -29 -61 -25 -66 51 -65 90 2 100 5 107 39 4 17 13
30 20 30 45 0 465 -191 465 -211 0 -6 -7 -12 -15 -15 -28 -11 -15 -23 41 -40
41 -12 59 -13 67 -5 19 19 50 12 136 -29 45 -22 89 -40 97 -40 25 0 26 -26 5
-87 -11 -32 -22 -82 -24 -110 l-4 -53 1013 0 1014 0 0 42 c0 148 -42 293 -108
373 -22 27 -24 36 -19 95 6 68 14 94 75 240 34 82 124 240 233 410 63 97 65
95 75 -67 17 -294 15 -285 57 -334 44 -50 43 -40 13 -250 -8 -59 -13 -115 -10
-125 3 -16 44 -364 44 -379 0 -3 81 -5 180 -5 l179 0 6 38 c3 20 8 50 10 66 7
39 -5 107 -17 100 -7 -4 -8 9 -5 37 4 24 6 82 5 129 -2 121 -2 124 10 345 7
110 12 253 12 317 0 64 4 127 9 140 11 27 34 243 33 308 0 40 1 42 8 15 6 -25
8 -26 9 -7 0 12 19 95 40 185 22 89 46 207 55 262 23 150 37 383 26 430 -5 22
-10 54 -10 70 0 17 -14 57 -30 89 -20 39 -30 74 -30 104 0 26 -8 58 -19 76
-10 17 -52 105 -92 195 -60 134 -84 176 -128 225 -97 108 -107 122 -39 57 65
-63 92 -75 69 -32 -11 20 -60 68 -233 230 -100 94 -128 108 -47 24 84 -88 92
-106 13 -31 -56 53 -93 77 -190 123 -65 31 -137 65 -159 76 -23 11 -74 30
-115 43 -41 13 -119 40 -173 60 -108 40 -147 43 -318 26 -94 -9 -239 -51 -379
-110 -48 -21 -135 -72 -150 -89 -13 -15 -187 -132 -255 -171 -49 -28 -41 -21
106 108 108 94 128 107 292 187 97 47 183 85 192 85 9 0 34 9 57 21 23 12 87
32 142 46 98 24 108 25 341 19 132 -4 290 -9 350 -12 107 -5 109 -5 78 12 -19
9 -30 21 -26 28 10 15 11 46 2 46 -11 0 -53 46 -85 91 -20 30 -23 41 -15 62 9
22 6 36 -14 74 -14 26 -28 63 -31 83 -5 29 -26 58 -94 131 -83 88 -89 98 -96
147 -3 29 -4 68 -1 87 6 39 0 50 -21 32 -9 -6 -13 -7 -9 -1 6 11 -42 61 -128
130 -79 64 -106 79 -114 66 -16 -27 -50 92 -58 203 -4 61 -6 112 -6 115 1 3 5
13 8 23 4 10 3 17 -4 17 -6 0 -11 -7 -11 -15 0 -27 -17 -16 -67 41 -45 50 -54
56 -97 60 -27 3 -66 -2 -92 -11 -25 -8 -89 -25 -142 -36 -101 -22 -136 -38
-212 -99 -72 -57 -80 -63 -80 -57 0 18 182 155 230 174 40 16 48 22 30 22 -14
1 -41 3 -60 5 -19 2 -74 0 -121 -5z m-175 -264 c-4 -8 -1 -15 5 -15 6 0 11 5
11 10 0 6 5 10 11 10 5 0 -11 -25 -37 -55 -54 -62 -74 -66 -25 -5 17 22 28 40
22 40 -5 0 -19 -12 -30 -27 -11 -16 -21 -23 -21 -16 0 14 48 73 61 73 4 0 6
-7 3 -15z m-161 -239 c-4 -8 -46 -56 -93 -107 -47 -50 -96 -110 -109 -132
l-23 -39 28 -24 c16 -13 34 -23 40 -24 7 0 29 -21 50 -47 43 -53 123 -132 151
-149 10 -6 20 -20 23 -31 7 -28 156 -166 193 -179 77 -27 75 -27 92 7 9 17 23
53 31 80 22 75 31 66 16 -16 l-15 -74 30 -30 c30 -29 121 -71 155 -71 11 0 15
-5 12 -15 -9 -23 -26 -19 -196 38 l-157 52 -234 227 c-213 207 -239 228 -281
238 -53 12 -92 -2 -120 -42 -9 -12 -16 -18 -16 -14 0 11 49 77 69 92 8 6 38
10 68 8 35 -3 53 0 53 7 0 6 33 48 73 93 39 45 86 99 102 120 48 60 59 70 63
58 2 -6 0 -18 -5 -26z m1245 -151 c-3 -3 -9 2 -12 12 -6 14 -5 15 5 6 7 -7 10
-15 7 -18z m-1708 -249 c0 -2 -8 -10 -17 -17 -16 -13 -17 -12 -4 4 13 16 21
21 21 13z m487 -193 c2 -6 -3 -13 -12 -16 -10 -5 -15 0 -15 14 0 21 21 22 27
2z m282 -526 c-17 -13 -318 -206 -335 -215 -11 -6 -26 -7 -34 -2 -9 6 -2 14
26 28 21 12 55 30 74 42 19 11 49 27 65 34 17 8 40 24 53 36 12 11 27 18 32
15 6 -3 10 -2 10 3 0 5 8 12 18 16 9 3 32 17 51 31 19 14 36 23 39 20 3 -3 3
-6 1 -8z m1164 -49 c12 -6 38 -27 57 -46 l35 -35 -55 38 c-30 21 -59 42 -64
47 -14 12 2 10 27 -4z m280 -235 c30 -38 14 -26 -43 34 -42 43 -45 48 -15 22
23 -18 49 -44 58 -56z m187 -28 c13 -14 21 -25 18 -25 -2 0 -15 11 -28 25 -13
14 -21 25 -18 25 2 0 15 -11 28 -25z m-1925 -15 c-10 -11 -20 -18 -23 -15 -7
6 18 35 31 35 5 0 2 -9 -8 -20z m1911 -171 c-2 -9 1 -25 7 -35 19 -36 -10 1
-82 106 l-72 105 75 -80 c45 -47 74 -87 72 -96z m-1209 85 c60 -3 142 -14 183
-24 41 -10 93 -21 116 -24 22 -3 79 -21 125 -39 46 -18 105 -41 132 -51 26
-10 47 -24 47 -31 0 -7 15 -53 34 -102 35 -94 58 -264 36 -278 -5 -3 -10 -18
-10 -32 0 -40 -22 -14 -55 64 -30 68 -95 177 -102 169 -3 -2 0 -13 6 -24 15
-29 14 -42 -6 -42 -10 0 -1 -12 25 -32 35 -27 42 -38 42 -66 0 -19 9 -50 21
-68 l21 -34 -29 0 c-15 0 -37 7 -47 15 -33 25 -52 19 -54 -19 -1 -18 2 -44 7
-57 14 -38 12 -44 -14 -41 -14 2 -25 -1 -25 -7 0 -5 -9 -12 -19 -16 -21 -6
-320 56 -382 80 -45 17 -193 43 -323 56 -94 9 -206 34 -206 45 0 3 5 15 11 26
20 37 31 160 17 187 -10 19 -10 25 0 28 6 3 12 11 12 19 0 12 -4 12 -20 4 -11
-6 -17 -16 -14 -25 4 -10 0 -15 -11 -15 -9 0 -35 -13 -58 -30 -23 -16 -59 -36
-80 -45 -37 -15 -38 -15 -27 5 6 11 14 20 19 20 5 0 21 18 36 40 23 33 25 43
15 55 -15 18 -12 19 75 35 33 7 65 18 71 25 6 8 31 26 55 40 l44 26 -40 -7
c-22 -3 -50 -12 -62 -20 -35 -22 -46 -16 -23 13 29 37 54 53 125 80 33 13 47
21 30 18 -100 -20 -251 -125 -325 -226 -25 -34 -49 -61 -54 -60 -5 2 -12 -3
-17 -10 -4 -8 -11 -10 -15 -6 -12 12 45 142 79 182 18 20 53 49 79 63 25 15
70 41 100 58 34 20 90 39 153 53 55 12 116 25 135 30 19 5 41 7 47 5 7 -2 61
-6 120 -10z m1101 -301 c17 -38 40 -92 52 -122 25 -66 82 -299 78 -321 -2 -8
-18 43 -36 113 -18 74 -55 183 -87 256 -58 133 -60 141 -46 141 4 0 22 -30 39
-67z m-1931 -143 c-3 -11 -1 -20 4 -20 6 0 7 -16 4 -37 -11 -62 -16 -73 -31
-73 -8 0 -21 -15 -29 -32 -19 -45 -18 -23 2 43 9 30 17 56 18 59 0 3 7 22 14
43 13 38 27 52 18 17z m2217 -435 c27 -333 29 -465 10 -579 -17 -104 -16 -238
5 -561 4 -66 7 -122 5 -124 -12 -14 -24 73 -38 259 -21 281 -21 303 10 423 22
84 25 114 20 172 -4 38 -9 111 -11 160 -3 50 -10 142 -15 205 -5 63 -11 160
-14 215 -6 153 10 53 28 -170z m-1520 235 c50 -11 100 -20 112 -20 12 0 27 -7
34 -15 7 -8 16 -12 21 -9 5 3 17 1 26 -5 13 -7 6 -9 -25 -7 -45 2 -66 -9 -35
-18 10 -3 -25 -3 -77 0 -68 4 -98 10 -107 21 -9 12 -20 13 -57 5 -35 -7 -50
-6 -63 4 -42 31 -183 6 -293 -52 l-65 -34 38 33 37 34 -52 11 -53 11 50 -6
c67 -8 73 -8 125 12 82 31 184 54 240 54 30 0 95 -8 144 -19z m-680 -250 c5
-113 4 -128 -15 -160 l-20 -35 7 50 c4 28 7 115 6 195 -1 172 13 141 22 -50z
m1439 146 c-15 -13 -30 -23 -32 -20 -5 4 41 43 52 44 4 0 -5 -11 -20 -24z
m-288 -43 c-3 -18 -15 -52 -26 -76 -11 -23 -17 -31 -14 -17 4 14 9 53 12 88 5
53 8 60 20 50 10 -8 13 -22 8 -45z m902 -45 c-2 -13 -4 -5 -4 17 -1 22 1 32 4
23 2 -10 2 -28 0 -40z m-637 -19 c-80 -73 -120 -103 -120 -91 0 20 158 153
180 152 3 -1 -24 -28 -60 -61z m-84 23 c-18 -16 -18 -16 -6 6 6 13 14 21 18
18 3 -4 -2 -14 -12 -24z m1092 -88 c2 -54 -2 -144 -8 -199 -9 -83 -15 -103
-33 -117 -59 -47 -77 2 -23 62 32 36 34 43 41 133 8 105 4 122 -25 107 -28
-15 -30 -13 -30 35 0 39 3 47 25 55 14 5 25 14 25 21 0 6 6 9 13 7 8 -3 13
-36 15 -104z m-349 -138 c1 -120 -6 -87 -12 54 -3 79 -2 107 3 75 5 -27 9 -86
9 -129z m-2032 42 c-2 -13 -4 -3 -4 22 0 25 2 35 4 23 2 -13 2 -33 0 -45z
m1013 -72 c0 -5 -7 -1 -15 10 -8 10 -14 24 -14 29 0 6 6 1 14 -9 8 -11 15 -24
15 -30z m-961 3 c-15 -9 1 -40 25 -49 18 -7 16 -9 -18 -18 -22 -7 -42 -10 -44
-7 -2 2 4 27 14 54 11 32 21 46 25 39 5 -7 4 -15 -2 -19z m371 1 c-20 -13 -53
-13 -45 0 3 6 18 10 33 10 21 0 24 -2 12 -10z m291 -71 c148 -49 228 -98 263
-160 l19 -34 -39 36 c-59 54 -339 181 -358 162 -3 -4 -6 -1 -6 5 0 6 -8 13
-17 15 -10 3 -4 5 13 6 17 0 73 -13 125 -30z m-231 -3 c53 -3 76 -14 77 -37 2
-18 -2 -19 -29 -14 -17 4 -47 14 -67 23 -20 8 -51 17 -70 19 -64 7 -70 23 -6
17 33 -3 76 -7 95 -8z m-615 -76 c-16 -39 -30 -68 -33 -66 -2 3 9 36 24 75 16
38 31 67 33 65 2 -2 -8 -35 -24 -74z m2172 18 c-2 -13 -4 -5 -4 17 -1 22 1 32
4 23 2 -10 2 -28 0 -40z m-1894 23 c21 -7 57 -11 80 -7 26 3 68 -2 112 -14 69
-18 70 -18 26 -19 -24 -1 -42 -3 -40 -6 3 -2 68 -16 145 -30 203 -37 261 -58
381 -138 57 -38 102 -72 99 -74 -2 -2 -42 14 -88 36 -47 23 -92 41 -101 41 -9
0 -19 5 -22 10 -3 6 -23 10 -43 10 -20 0 -32 -4 -26 -8 6 -4 17 -17 23 -30 8
-14 18 -21 27 -18 8 3 17 -1 20 -9 4 -8 12 -15 20 -15 15 0 19 -26 5 -34 -5
-3 -20 3 -33 14 -14 10 -39 18 -56 18 -17 -1 -37 4 -44 10 -7 5 -39 13 -72 16
-32 4 -70 15 -85 24 -14 10 -37 18 -51 18 -14 -1 -37 2 -52 6 -18 4 -31 2 -39
-8 -16 -19 -35 -18 -51 4 -7 10 -34 24 -60 31 -27 8 -48 17 -48 22 0 4 29 11
65 14 36 4 65 10 65 13 0 17 -43 31 -92 32 -57 0 -208 -28 -218 -40 -3 -4 -13
-9 -22 -13 -25 -9 -23 -30 2 -22 11 3 27 2 36 -3 15 -9 15 -10 -4 -16 -12 -4
-29 -3 -39 2 -13 8 -21 6 -30 -6 -7 -10 -12 -12 -13 -5 0 6 4 15 10 18 5 3 14
23 20 44 6 21 16 39 23 38 34 -1 57 4 57 13 0 6 -8 10 -18 10 -33 0 -43 20
-26 52 13 25 20 29 41 24 14 -4 22 -3 19 3 -8 12 50 8 97 -8z m1922 -193 c-2
-13 -20 -89 -40 -169 -19 -80 -35 -167 -36 -195 l0 -49 -24 52 -23 52 24 71
c13 39 31 99 40 133 18 72 42 127 55 127 5 0 7 -10 4 -22z m261 -110 c-4 -40
-11 -89 -16 -108 -6 -25 -7 -15 -3 38 5 64 4 72 -11 66 -11 -4 -16 -19 -17
-53 0 -25 -4 -64 -8 -86 l-9 -40 -1 41 c0 23 2 75 5 116 6 62 10 76 28 85 37
19 39 15 32 -59z m-1926 53 c0 -5 20 -45 45 -90 43 -78 51 -117 19 -90 -8 6
-14 15 -14 19 0 16 -82 150 -91 150 -6 0 -7 5 -4 10 8 12 45 13 45 1z m-425
-86 c55 -14 121 -30 146 -35 85 -17 364 -121 448 -168 89 -50 141 -91 141
-114 0 -7 -10 -1 -23 14 -44 53 -320 169 -567 239 -153 43 -207 58 -232 63
-16 4 -28 11 -28 16 0 13 1 13 115 -15z m-141 -101 c5 -14 4 -15 -9 -4 -17 14
-19 20 -6 20 5 0 12 -7 15 -16z m-50 -72 c3 -5 -1 -9 -9 -9 -8 0 -12 4 -9 9 3
4 7 8 9 8 2 0 6 -4 9 -8z m266 -32 c21 -18 22 -22 7 -33 -8 -6 -22 -38 -30
-69 l-15 -56 34 -29 c46 -38 173 -103 189 -97 7 3 16 12 19 21 9 23 38 -4 31
-28 -5 -14 5 -27 39 -51 25 -17 44 -34 41 -36 -2 -2 -64 25 -137 61 -73 35
-160 72 -193 82 -94 27 -221 96 -210 115 3 4 19 3 35 -3 27 -10 32 -9 46 12 9
12 31 36 49 53 21 18 31 36 28 45 -6 15 12 33 33 33 6 0 21 -9 34 -20z m-269
-13 c-10 -9 -11 -8 -5 6 3 10 9 15 12 12 3 -3 0 -11 -7 -18z m173 -231 l69
-23 -101 -6 c-56 -3 -111 -11 -123 -17 -11 -7 -23 -9 -26 -6 -3 3 6 11 21 17
14 7 26 20 26 29 0 38 35 39 134 6z m36 -61 c16 -19 3 -19 -30 0 -24 13 -24
14 -4 15 12 0 27 -7 34 -15z m-1526 -37 c-22 -24 -47 -54 -56 -68 -9 -14 -17
-19 -17 -12 -1 7 22 38 50 68 61 64 79 73 23 12z m2007 -191 c-13 -13 -15 1
-4 30 7 17 8 17 11 -1 2 -10 -1 -23 -7 -29z m-778 -177 c-4 -83 -2 -134 4
-142 18 -21 73 -118 68 -118 -3 0 -25 26 -48 59 -39 53 -44 65 -46 121 -2 54
16 210 25 210 1 0 0 -58 -3 -130z m116 -27 c22 -43 41 -65 76 -87 25 -15 53
-42 62 -59 l15 -31 -43 37 c-27 24 -49 35 -60 32 -14 -5 -25 10 -53 71 -20 42
-36 81 -36 85 0 20 11 6 39 -48z m905 13 c-3 -21 -8 -35 -11 -32 -2 2 -1 20 3
40 3 21 8 35 11 32 2 -2 1 -20 -3 -40z m-557 -292 c13 -8 30 -28 38 -44 17
-33 7 -41 -13 -10 -7 11 -31 34 -55 51 -31 24 -36 30 -17 24 14 -4 35 -13 47
-21z m1262 -364 c0 -18 -4 -12 -15 20 -17 56 -17 62 1 30 8 -14 14 -36 14 -50z"/>
<path d="M4050 3115 c-60 -17 -29 -18 40 0 30 7 44 13 30 13 -14 0 -45 -6 -70
-13z"/>
<path d="M4218 3123 c12 -2 30 -2 40 0 9 3 -1 5 -23 4 -22 0 -30 -2 -17 -4z"/>
<path d="M4313 3113 c9 -2 23 -2 30 0 6 3 -1 5 -18 5 -16 0 -22 -2 -12 -5z"/>
<path d="M4388 3103 c7 -3 16 -2 19 1 4 3 -2 6 -13 5 -11 0 -14 -3 -6 -6z"/>
<path d="M4441 3096 c2 -2 15 -9 29 -15 24 -11 24 -11 6 3 -16 13 -49 24 -35
12z"/>
<path d="M4503 3064 c13 -13 137 -82 132 -74 -6 10 -122 80 -132 80 -4 0 -4
-3 0 -6z"/>
<path d="M4011 2944 c-36 -8 -67 -16 -69 -19 -3 -3 28 -4 69 -4 41 1 63 4 49
7 -23 5 -22 6 15 18 53 17 16 16 -64 -2z"/>
<path d="M4710 2907 c0 -2 15 -16 33 -33 l32 -29 -29 33 c-28 30 -36 37 -36
29z"/>
<path d="M3595 2840 c-3 -5 -1 -10 4 -10 6 0 11 5 11 10 0 6 -2 10 -4 10 -3 0
-8 -4 -11 -10z"/>
<path d="M3660 1933 c0 -15 7 -17 52 -14 55 3 50 14 -14 25 -32 6 -38 4 -38
-11z"/>
<path d="M5158 3696 c-13 -6 -24 -22 -26 -36 -2 -22 6 -29 65 -57 37 -17 107
-55 156 -82 48 -28 89 -51 90 -51 2 0 3 15 3 33 0 21 4 31 13 29 10 -2 12 4 7
20 -4 13 -8 28 -10 35 -1 7 -5 16 -9 19 -4 4 -1 14 6 22 7 10 8 13 1 9 -7 -4
-22 4 -35 16 -53 52 -196 75 -261 43z m272 -160 c0 -3 -4 -8 -10 -11 -5 -3
-10 -1 -10 4 0 6 5 11 10 11 6 0 10 -2 10 -4z"/>
<path d="M5109 3620 c13 -11 27 -20 32 -20 18 0 8 10 -23 25 l-33 16 24 -21z"/>
<path d="M5160 3552 c0 -4 17 -16 38 -27 52 -27 52 -27 52 -21 0 2 -20 16 -45
29 -25 14 -45 22 -45 19z"/>
<path d="M5287 3479 c7 -7 15 -10 18 -7 3 3 -2 9 -12 12 -14 6 -15 5 -6 -5z"/>
<path d="M5690 3306 c-5 -15 -17 -26 -28 -26 -10 0 -21 -3 -25 -6 -18 -19 96
-164 129 -164 15 0 16 7 10 56 -6 53 -44 146 -66 159 -5 3 -14 -5 -20 -19z"/>
<path d="M5725 3042 c4 -13 36 -89 72 -170 36 -81 75 -173 86 -204 11 -32 23
-58 27 -58 15 0 -10 103 -40 161 -17 33 -41 86 -54 117 -25 62 -102 191 -91
154z"/>
<path d="M3327 1089 c7 -7 15 -10 18 -7 3 3 -2 9 -12 12 -14 6 -15 5 -6 -5z"/>
<path d="M3605 810 c10 -11 20 -20 23 -20 3 0 -3 9 -13 20 -10 11 -20 20 -23
20 -3 0 3 -9 13 -20z"/>
</g>
</svg>
