<?xml version="1.0" standalone="no"?>
<!DOCTYPE svg PUBLIC "-//W3C//DTD SVG 20010904//EN"
 "http://www.w3.org/TR/2001/REC-SVG-20010904/DTD/svg10.dtd">
<svg version="1.0" xmlns="http://www.w3.org/2000/svg"
 width="600.000000pt" height="450.000000pt" viewBox="0 0 600.000000 450.000000"
 preserveAspectRatio="xMidYMid meet">

<g transform="translate(0.000000,450.000000) scale(0.100000,-0.100000)"
fill="#000000" stroke="none">
<path d="M4682 4190 c-24 -20 -72 -52 -105 -70 -34 -18 -80 -44 -102 -56 -22
-13 -123 -64 -225 -114 -102 -50 -193 -96 -203 -101 -38 -21 -239 -104 -387
-161 -449 -171 -870 -282 -1405 -368 -263 -42 -678 -74 -738 -56 -27 8 -27 8
19 -70 230 -386 415 -989 483 -1569 17 -144 32 -474 25 -546 -10 -106 -27
-102 481 -119 165 -6 347 -17 405 -25 235 -33 521 -68 524 -64 1 2 67 195 146
429 221 658 322 950 505 1455 168 463 382 974 558 1328 38 76 67 140 65 142
-2 2 -23 -14 -46 -35z m-264 -267 c-2 -5 -18 -36 -36 -71 -38 -73 -107 -242
-187 -462 -60 -162 -302 -887 -375 -1120 -23 -74 -51 -160 -61 -190 -10 -30
-64 -199 -119 -375 -173 -549 -230 -716 -248 -722 -20 -8 -264 9 -737 52 -209
20 -407 38 -441 41 l-61 5 -6 272 c-15 655 -110 1395 -223 1739 -7 20 -8 20
166 48 717 118 1508 380 2196 729 118 59 139 68 132 54z"/>
<path d="M3295 3320 c4 -6 -5 -10 -21 -10 -52 0 -124 -103 -124 -179 0 -11 -5
-21 -11 -21 -19 0 -3 -81 20 -104 28 -28 158 -36 213 -13 69 29 115 122 103
205 -6 38 -15 55 -51 90 -39 37 -50 42 -90 42 -27 0 -43 -4 -39 -10z m119 -89
c43 -47 24 -139 -38 -186 -37 -28 -62 -28 -91 1 -34 34 -5 166 42 193 28 16
68 13 87 -8z"/>
<path d="M3300 2926 c0 -8 -6 -16 -13 -19 -7 -3 -28 -33 -46 -67 -90 -169
-381 -501 -467 -532 -19 -7 -33 -17 -31 -22 5 -15 109 -76 130 -76 10 0 35 9
57 20 22 11 43 20 48 20 14 0 31 -46 26 -71 -19 -92 -70 -267 -94 -324 -28
-68 -96 -197 -125 -236 -36 -50 -99 -91 -178 -114 -27 -8 -70 -26 -94 -41 -24
-14 -86 -40 -136 -58 -51 -18 -102 -39 -114 -46 -28 -18 -32 -65 -5 -57 81 26
217 91 331 158 l53 32 -7 -34 c-4 -18 -12 -40 -17 -49 -21 -32 -189 -142 -281
-183 -53 -24 -69 -36 -73 -56 -3 -14 -9 -34 -15 -43 -13 -25 -11 -48 4 -48 23
0 143 37 178 55 122 63 254 175 466 395 172 179 278 308 343 417 19 32 60 96
91 143 53 81 134 224 210 372 l34 68 71 0 c86 0 134 15 134 41 0 10 -5 19 -12
19 -6 0 -43 21 -82 48 -84 56 -206 176 -253 250 -33 51 -34 52 -83 52 -36 0
-50 -4 -50 -14z m90 -115 c0 -19 128 -134 182 -164 35 -19 58 -39 58 -49 0
-20 -26 -27 -57 -17 -26 10 -35 -3 -83 -116 -43 -99 -146 -288 -193 -352 -19
-27 -55 -83 -81 -126 -37 -64 -97 -149 -172 -243 -13 -17 -64 -29 -64 -16 0 5
14 39 30 76 50 110 61 142 137 416 8 30 21 74 30 97 20 59 8 72 -32 33 -36
-35 -106 -64 -116 -48 -3 5 -18 6 -32 2 -15 -3 -27 -3 -27 0 0 4 29 34 65 68
61 56 134 156 270 369 31 48 57 78 68 79 9 0 17 -4 17 -9z"/>
<path d="M1964 1313 c-14 -51 -27 -68 -99 -139 -102 -100 -200 -156 -313 -179
-45 -9 -62 -30 -62 -75 0 -21 -7 -45 -15 -54 -8 -8 -15 -23 -15 -34 0 -18 4
-19 42 -11 23 6 96 27 162 48 67 22 164 52 216 68 l95 29 5 67 c3 37 2 67 -1
67 -3 0 -16 -12 -30 -26 -32 -34 -60 -44 -103 -37 -43 7 -45 17 -9 46 14 12
58 54 98 93 l72 71 -2 58 c-1 33 -7 61 -13 63 -6 2 -18 -23 -28 -55z"/>
<path d="M2690 712 c-27 -4 -42 -24 -48 -62 -2 -13 -8 -30 -13 -36 -6 -8 -3
-10 14 -7 14 3 29 -3 41 -16 15 -16 16 -21 5 -22 -40 -5 -55 -3 -67 5 -9 6
-19 4 -30 -8 -16 -16 -16 -18 2 -32 24 -17 85 -18 120 -3 18 9 33 9 57 0 42
-15 48 -7 18 25 -22 24 -23 26 -6 38 9 7 17 18 17 25 0 16 -27 13 -34 -4 -9
-23 -40 -18 -69 13 -32 33 -35 52 -7 52 11 0 20 -4 20 -10 0 -12 11 -13 30 0
13 8 12 12 -5 28 -12 11 -30 17 -45 14z"/>
<path d="M3839 676 c-9 -11 -19 -47 -23 -79 l-6 -58 77 3 c61 2 78 6 78 18 0
9 -8 14 -20 13 -11 -2 -37 0 -57 3 -47 7 -51 31 -6 36 46 4 49 28 4 28 -25 0
-36 4 -36 15 0 12 13 15 55 15 42 0 55 3 55 15 0 11 -12 15 -53 14 -41 -1 -56
-6 -68 -23z"/>
<path d="M3063 678 c-40 -19 -25 -28 35 -22 65 8 73 11 52 24 -20 13 -59 11
-87 -2z"/>
<path d="M3242 655 c2 -19 1 -36 -3 -37 -4 -2 -9 -21 -11 -43 -2 -30 1 -40 12
-40 8 0 17 11 20 25 5 23 11 25 55 25 44 0 50 -3 53 -22 4 -25 30 -39 38 -19
10 27 -1 139 -14 144 -7 2 -12 -2 -11 -9 2 -8 -1 -25 -5 -38 -7 -21 -12 -23
-53 -17 -57 7 -63 12 -63 42 0 13 -5 24 -11 24 -7 0 -10 -14 -7 -35z"/>
<path d="M3478 678 c0 -7 -2 -41 -3 -75 -2 -56 -1 -63 17 -63 17 0 19 7 16 72
-2 46 -7 73 -15 76 -7 2 -14 -2 -15 -10z"/>
<path d="M3724 650 c-8 -51 -27 -52 -73 -5 -31 32 -71 50 -56 25 3 -6 -1 -13
-9 -16 -12 -5 -16 -20 -16 -61 0 -47 3 -54 18 -51 13 3 16 12 15 41 -3 49 15
48 76 -3 26 -22 53 -40 59 -40 8 0 12 24 12 75 0 81 -16 101 -26 35z"/>
<path d="M2340 671 c-38 -9 -71 -36 -73 -60 -1 -11 -6 -21 -12 -21 -5 0 -3 -5
5 -10 10 -6 11 -10 3 -10 -7 0 -13 -11 -13 -25 0 -25 1 -25 81 -25 60 0 80 3
77 13 -3 7 -27 13 -62 15 -48 3 -57 6 -54 20 2 11 15 18 36 20 17 2 32 7 32
13 0 5 -4 9 -10 9 -24 0 -8 29 17 32 17 2 29 10 31 21 4 18 -11 20 -58 8z
m-20 -41 c0 -5 -7 -10 -15 -10 -8 0 -15 5 -15 10 0 6 7 10 15 10 8 0 15 -4 15
-10z"/>
<path d="M1836 661 c-4 -5 -18 -8 -32 -6 -15 1 -36 -7 -53 -21 -24 -20 -28
-31 -30 -79 -1 -44 2 -55 14 -55 9 0 18 12 22 30 7 38 26 38 70 -1 34 -30 53
-33 60 -12 2 6 -5 14 -16 18 -24 7 -28 30 -6 39 20 7 19 60 -1 80 -18 19 -21
19 -28 7z m-4 -35 c12 -17 -2 -26 -38 -26 -31 0 -45 16 -28 32 8 9 58 4 66 -6z"/>
<path d="M1942 642 c-6 -15 -11 -51 -11 -79 0 -46 3 -53 20 -53 17 0 19 7 19
74 0 80 -11 103 -28 58z"/>
<path d="M2125 661 c-6 -5 -19 -11 -30 -14 -14 -3 -11 -5 10 -6 52 -2 61 -17
14 -25 -23 -4 -45 -3 -48 2 -3 5 -14 9 -24 9 -12 0 -17 -7 -15 -21 3 -18 12
-22 61 -26 31 -3 57 -8 57 -12 0 -5 0 -12 0 -18 0 -5 -25 -10 -55 -10 -42 0
-55 -3 -55 -15 0 -12 14 -15 70 -15 81 0 96 13 79 72 -5 20 -8 46 -7 59 2 19
-2 25 -22 27 -14 2 -30 -1 -35 -7z"/>
<path d="M1553 616 c-18 -24 -33 -47 -33 -53 0 -5 -9 -18 -20 -28 -25 -23 -25
-35 -1 -35 13 0 26 16 42 55 13 30 29 55 35 55 11 0 54 -54 54 -69 0 -11 -24
-21 -51 -21 -10 0 -19 -4 -19 -10 0 -6 27 -10 60 -10 36 0 60 4 60 11 0 10
-86 149 -92 149 -2 0 -18 -20 -35 -44z"/>
<path d="M3011 641 c-30 -19 -3 -40 56 -43 44 -2 58 -7 58 -18 0 -11 -15 -16
-63 -18 -86 -4 -79 -26 10 -30 77 -3 104 13 93 57 -9 34 -7 33 -62 42 -27 4
-55 10 -63 13 -8 3 -21 2 -29 -3z"/>
</g>
</svg>
